<?xml version="1.0" encoding="UTF-8"?>
<svg xmlns="http://www.w3.org/2000/svg" xmlns:xlink="http://www.w3.org/1999/xlink" width="306pt" height="182pt" viewBox="0 0 306 182" version="1.2">
<g id="surface1">
<path style="fill:none;stroke-width:10;stroke-linecap:butt;stroke-linejoin:miter;stroke:rgb(0%,0%,0%);stroke-opacity:1;stroke-miterlimit:4;" d="M 412.5 827.929688 L 316.875 657.226562 L 125.625 657.226562 L 30 827.929688 L 125.625 998.59375 L 316.875 998.59375 Z M 412.5 827.929688 " transform="matrix(0.1,0,0,-0.1,0,182)"/>
<path style="fill:none;stroke-width:10;stroke-linecap:butt;stroke-linejoin:miter;stroke:rgb(0%,0%,0%);stroke-opacity:1;stroke-miterlimit:4;" d="M 420 488.359375 L 322.5 319.492188 L 127.5 319.492188 L 30 488.359375 L 127.5 657.226562 L 322.5 657.226562 Z M 420 488.359375 " transform="matrix(0.1,0,0,-0.1,0,182)"/>
<path style="fill:none;stroke-width:10;stroke-linecap:butt;stroke-linejoin:miter;stroke:rgb(0%,0%,0%);stroke-opacity:1;stroke-miterlimit:4;" d="M 224.765625 1298.203125 L 384.140625 1182.1875 L 323.242188 994.453125 L 126.25 994.453125 L 65.390625 1182.1875 Z M 224.765625 1298.203125 " transform="matrix(0.1,0,0,-0.1,0,182)"/>
<path style="fill:none;stroke-width:10;stroke-linecap:butt;stroke-linejoin:miter;stroke:rgb(0%,0%,0%);stroke-opacity:1;stroke-miterlimit:4;" d="M 699.375 1334.179688 L 603.75 1163.476562 L 412.5 1163.476562 L 316.875 1334.179688 L 412.5 1504.84375 L 603.75 1504.84375 Z M 699.375 1334.179688 " transform="matrix(0.1,0,0,-0.1,0,182)"/>
<path style="fill:none;stroke-width:10;stroke-linecap:butt;stroke-linejoin:miter;stroke:rgb(0%,0%,0%);stroke-opacity:1;stroke-miterlimit:4;" d="M 706.875 994.609375 L 609.375 825.742188 L 414.375 825.742188 L 316.875 994.609375 L 414.375 1163.476562 L 609.375 1163.476562 Z M 706.875 994.609375 " transform="matrix(0.1,0,0,-0.1,0,182)"/>
<path style="fill:none;stroke-width:10;stroke-linecap:butt;stroke-linejoin:miter;stroke:rgb(0%,0%,0%);stroke-opacity:1;stroke-miterlimit:4;" d="M 511.640625 1804.453125 L 671.015625 1688.4375 L 610.117188 1500.703125 L 413.125 1500.703125 L 352.265625 1688.4375 Z M 511.640625 1804.453125 " transform="matrix(0.1,0,0,-0.1,0,182)"/>
<path style="fill:none;stroke-width:10;stroke-linecap:butt;stroke-linejoin:miter;stroke:rgb(0%,0%,0%);stroke-opacity:1;stroke-miterlimit:4;" d="M 513.515625 521.953125 L 672.890625 637.96875 L 611.992188 825.703125 L 415 825.703125 L 354.140625 637.96875 Z M 513.515625 521.953125 " transform="matrix(0.1,0,0,-0.1,0,182)"/>
<path style="fill:none;stroke-width:10;stroke-linecap:butt;stroke-linejoin:miter;stroke:rgb(0%,0%,0%);stroke-opacity:1;stroke-miterlimit:4;" d="M 997.5 827.929688 L 901.875 657.226562 L 710.625 657.226562 L 615 827.929688 L 710.625 998.59375 L 901.875 998.59375 Z M 997.5 827.929688 " transform="matrix(0.1,0,0,-0.1,0,182)"/>
<path style="fill:none;stroke-width:10;stroke-linecap:butt;stroke-linejoin:miter;stroke:rgb(0%,0%,0%);stroke-opacity:1;stroke-miterlimit:4;" d="M 1005 488.359375 L 907.5 319.492188 L 712.5 319.492188 L 615 488.359375 L 712.5 657.226562 L 907.5 657.226562 Z M 1005 488.359375 " transform="matrix(0.1,0,0,-0.1,0,182)"/>
<path style="fill:none;stroke-width:10;stroke-linecap:butt;stroke-linejoin:miter;stroke:rgb(0%,0%,0%);stroke-opacity:1;stroke-miterlimit:4;" d="M 809.765625 1298.203125 L 969.140625 1182.1875 L 908.242188 994.453125 L 711.25 994.453125 L 650.390625 1182.1875 Z M 809.765625 1298.203125 " transform="matrix(0.1,0,0,-0.1,0,182)"/>
<path style="fill:none;stroke-width:10;stroke-linecap:butt;stroke-linejoin:miter;stroke:rgb(0%,0%,0%);stroke-opacity:1;stroke-miterlimit:4;" d="M 811.640625 15.703125 L 971.015625 131.71875 L 910.117188 319.453125 L 713.125 319.453125 L 652.265625 131.71875 Z M 811.640625 15.703125 " transform="matrix(0.1,0,0,-0.1,0,182)"/>
<path style="fill:none;stroke-width:10;stroke-linecap:butt;stroke-linejoin:miter;stroke:rgb(0%,0%,0%);stroke-opacity:1;stroke-miterlimit:4;" d="M 1284.375 1334.179688 L 1188.75 1163.476562 L 997.5 1163.476562 L 901.875 1334.179688 L 997.5 1504.84375 L 1188.75 1504.84375 Z M 1284.375 1334.179688 " transform="matrix(0.1,0,0,-0.1,0,182)"/>
<path style="fill:none;stroke-width:10;stroke-linecap:butt;stroke-linejoin:miter;stroke:rgb(0%,0%,0%);stroke-opacity:1;stroke-miterlimit:4;" d="M 1291.875 994.609375 L 1194.375 825.742188 L 999.375 825.742188 L 901.875 994.609375 L 999.375 1163.476562 L 1194.375 1163.476562 Z M 1291.875 994.609375 " transform="matrix(0.1,0,0,-0.1,0,182)"/>
<path style="fill:none;stroke-width:10;stroke-linecap:butt;stroke-linejoin:miter;stroke:rgb(0%,0%,0%);stroke-opacity:1;stroke-miterlimit:4;" d="M 1098.515625 521.953125 L 1257.890625 637.96875 L 1196.992188 825.703125 L 1000 825.703125 L 939.140625 637.96875 Z M 1098.515625 521.953125 " transform="matrix(0.1,0,0,-0.1,0,182)"/>
<path style="fill:none;stroke-width:10;stroke-linecap:butt;stroke-linejoin:miter;stroke:rgb(0%,0%,0%);stroke-opacity:1;stroke-miterlimit:4;" d="M 1582.5 827.929688 L 1486.875 657.226562 L 1295.625 657.226562 L 1200 827.929688 L 1295.625 998.59375 L 1486.875 998.59375 Z M 1582.5 827.929688 " transform="matrix(0.1,0,0,-0.1,0,182)"/>
<path style="fill:none;stroke-width:10;stroke-linecap:butt;stroke-linejoin:miter;stroke:rgb(0%,0%,0%);stroke-opacity:1;stroke-miterlimit:4;" d="M 1590 488.359375 L 1492.5 319.492188 L 1297.5 319.492188 L 1200 488.359375 L 1297.5 657.226562 L 1492.5 657.226562 Z M 1590 488.359375 " transform="matrix(0.1,0,0,-0.1,0,182)"/>
<path style="fill:none;stroke-width:10;stroke-linecap:butt;stroke-linejoin:miter;stroke:rgb(0%,0%,0%);stroke-opacity:1;stroke-miterlimit:4;" d="M 1394.765625 1298.203125 L 1554.140625 1182.1875 L 1493.242188 994.453125 L 1296.25 994.453125 L 1235.390625 1182.1875 Z M 1394.765625 1298.203125 " transform="matrix(0.1,0,0,-0.1,0,182)"/>
<path style="fill:none;stroke-width:10;stroke-linecap:butt;stroke-linejoin:miter;stroke:rgb(0%,0%,0%);stroke-opacity:1;stroke-miterlimit:4;" d="M 1869.375 1334.179688 L 1773.75 1163.476562 L 1582.5 1163.476562 L 1486.875 1334.179688 L 1582.5 1504.84375 L 1773.75 1504.84375 Z M 1869.375 1334.179688 " transform="matrix(0.1,0,0,-0.1,0,182)"/>
<path style="fill:none;stroke-width:10;stroke-linecap:butt;stroke-linejoin:miter;stroke:rgb(0%,0%,0%);stroke-opacity:1;stroke-miterlimit:4;" d="M 1876.875 994.609375 L 1779.375 825.742188 L 1584.375 825.742188 L 1486.875 994.609375 L 1584.375 1163.476562 L 1779.375 1163.476562 Z M 1876.875 994.609375 " transform="matrix(0.1,0,0,-0.1,0,182)"/>
<path style="fill:none;stroke-width:10;stroke-linecap:butt;stroke-linejoin:miter;stroke:rgb(0%,0%,0%);stroke-opacity:1;stroke-miterlimit:4;" d="M 1683.515625 521.953125 L 1842.890625 637.96875 L 1781.992188 825.703125 L 1585 825.703125 L 1524.140625 637.96875 Z M 1683.515625 521.953125 " transform="matrix(0.1,0,0,-0.1,0,182)"/>
<path style="fill:none;stroke-width:10;stroke-linecap:butt;stroke-linejoin:miter;stroke:rgb(0%,0%,0%);stroke-opacity:1;stroke-miterlimit:4;" d="M 2167.5 827.929688 L 2071.875 657.226562 L 1880.625 657.226562 L 1785 827.929688 L 1880.625 998.59375 L 2071.875 998.59375 Z M 2167.5 827.929688 " transform="matrix(0.1,0,0,-0.1,0,182)"/>
<path style="fill:none;stroke-width:10;stroke-linecap:butt;stroke-linejoin:miter;stroke:rgb(0%,0%,0%);stroke-opacity:1;stroke-miterlimit:4;" d="M 2175 488.359375 L 2077.5 319.492188 L 1882.5 319.492188 L 1785 488.359375 L 1882.5 657.226562 L 2077.5 657.226562 Z M 2175 488.359375 " transform="matrix(0.1,0,0,-0.1,0,182)"/>
<path style="fill:none;stroke-width:10;stroke-linecap:butt;stroke-linejoin:miter;stroke:rgb(0%,0%,0%);stroke-opacity:1;stroke-miterlimit:4;" d="M 1979.765625 1298.203125 L 2139.140625 1182.1875 L 2078.242188 994.453125 L 1881.25 994.453125 L 1820.390625 1182.1875 Z M 1979.765625 1298.203125 " transform="matrix(0.1,0,0,-0.1,0,182)"/>
<path style="fill:none;stroke-width:10;stroke-linecap:butt;stroke-linejoin:miter;stroke:rgb(0%,0%,0%);stroke-opacity:1;stroke-miterlimit:4;" d="M 2454.375 1334.179688 L 2358.75 1163.476562 L 2167.5 1163.476562 L 2071.875 1334.179688 L 2167.5 1504.84375 L 2358.75 1504.84375 Z M 2454.375 1334.179688 " transform="matrix(0.1,0,0,-0.1,0,182)"/>
<path style="fill:none;stroke-width:10;stroke-linecap:butt;stroke-linejoin:miter;stroke:rgb(0%,0%,0%);stroke-opacity:1;stroke-miterlimit:4;" d="M 2461.875 994.609375 L 2364.375 825.742188 L 2169.375 825.742188 L 2071.875 994.609375 L 2169.375 1163.476562 L 2364.375 1163.476562 Z M 2461.875 994.609375 " transform="matrix(0.1,0,0,-0.1,0,182)"/>
<path style="fill:none;stroke-width:10;stroke-linecap:butt;stroke-linejoin:miter;stroke:rgb(0%,0%,0%);stroke-opacity:1;stroke-miterlimit:4;" d="M 2268.515625 521.953125 L 2427.890625 637.96875 L 2366.992188 825.703125 L 2170 825.703125 L 2109.140625 637.96875 Z M 2268.515625 521.953125 " transform="matrix(0.1,0,0,-0.1,0,182)"/>
<path style="fill:none;stroke-width:10;stroke-linecap:butt;stroke-linejoin:miter;stroke:rgb(0%,0%,0%);stroke-opacity:1;stroke-miterlimit:4;" d="M 2752.5 827.929688 L 2656.875 657.226562 L 2465.625 657.226562 L 2370 827.929688 L 2465.625 998.59375 L 2656.875 998.59375 Z M 2752.5 827.929688 " transform="matrix(0.1,0,0,-0.1,0,182)"/>
<path style="fill:none;stroke-width:10;stroke-linecap:butt;stroke-linejoin:miter;stroke:rgb(0%,0%,0%);stroke-opacity:1;stroke-miterlimit:4;" d="M 2760 488.359375 L 2662.5 319.492188 L 2467.5 319.492188 L 2370 488.359375 L 2467.5 657.226562 L 2662.5 657.226562 Z M 2760 488.359375 " transform="matrix(0.1,0,0,-0.1,0,182)"/>
<path style="fill:none;stroke-width:10;stroke-linecap:butt;stroke-linejoin:miter;stroke:rgb(0%,0%,0%);stroke-opacity:1;stroke-miterlimit:4;" d="M 2564.765625 1298.203125 L 2724.140625 1182.1875 L 2663.242188 994.453125 L 2466.25 994.453125 L 2405.390625 1182.1875 Z M 2564.765625 1298.203125 " transform="matrix(0.1,0,0,-0.1,0,182)"/>
<path style="fill:none;stroke-width:10;stroke-linecap:butt;stroke-linejoin:miter;stroke:rgb(0%,0%,0%);stroke-opacity:1;stroke-miterlimit:4;" d="M 3039.375 1334.179688 L 2943.75 1163.476562 L 2752.5 1163.476562 L 2656.875 1334.179688 L 2752.5 1504.84375 L 2943.75 1504.84375 Z M 3039.375 1334.179688 " transform="matrix(0.1,0,0,-0.1,0,182)"/>
<path style="fill:none;stroke-width:10;stroke-linecap:butt;stroke-linejoin:miter;stroke:rgb(0%,0%,0%);stroke-opacity:1;stroke-miterlimit:4;" d="M 3046.875 994.609375 L 2949.375 825.742188 L 2754.375 825.742188 L 2656.875 994.609375 L 2754.375 1163.476562 L 2949.375 1163.476562 Z M 3046.875 994.609375 " transform="matrix(0.1,0,0,-0.1,0,182)"/>
<path style="fill:none;stroke-width:10;stroke-linecap:butt;stroke-linejoin:miter;stroke:rgb(0%,0%,0%);stroke-opacity:1;stroke-miterlimit:4;" d="M 2853.515625 521.953125 L 3012.890625 637.96875 L 2951.992188 825.703125 L 2755 825.703125 L 2694.140625 637.96875 Z M 2853.515625 521.953125 " transform="matrix(0.1,0,0,-0.1,0,182)"/>
</g>
</svg>
